<svg aria-hidden="true" style="position:absolute;width:0;height:0;overflow:hidden" xmlns="http://www.w3.org/2000/svg">
  <defs>
    <symbol id="icon-shopping-bag" viewBox="0 0 20 20">
      <path d="M15.8335 5.83335H13.3335V5.00002C13.3335 4.11596 12.9823 3.26812 12.3572 2.643C11.7321 2.01788 10.8842 1.66669 10.0002 1.66669C9.11611 1.66669 8.26826 2.01788 7.64314 2.643C7.01802 3.26812 6.66683 4.11596 6.66683 5.00002V5.83335H4.16683C3.94582 5.83335 3.73385 5.92115 3.57757 6.07743C3.42129 6.23371 3.3335 6.44567 3.3335 6.66669V15.8334C3.3335 16.4964 3.59689 17.1323 4.06573 17.6011C4.53457 18.07 5.17045 18.3334 5.8335 18.3334H14.1668C14.8299 18.3334 15.4658 18.07 15.9346 17.6011C16.4034 17.1323 16.6668 16.4964 16.6668 15.8334V6.66669C16.6668 6.44567 16.579 6.23371 16.4227 6.07743C16.2665 5.92115 16.0545 5.83335 15.8335 5.83335ZM8.33349 5.00002C8.33349 4.55799 8.50909 4.13407 8.82165 3.82151C9.13421 3.50895 9.55813 3.33335 10.0002 3.33335C10.4422 3.33335 10.8661 3.50895 11.1787 3.82151C11.4912 4.13407 11.6668 4.55799 11.6668 5.00002V5.83335H8.33349V5.00002ZM15.0002 15.8334C15.0002 16.0544 14.9124 16.2663 14.7561 16.4226C14.5998 16.5789 14.3878 16.6667 14.1668 16.6667H5.8335C5.61248 16.6667 5.40052 16.5789 5.24424 16.4226C5.08796 16.2663 5.00016 16.0544 5.00016 15.8334V7.50002H6.66683V8.33335C6.66683 8.55437 6.75463 8.76633 6.91091 8.92261C7.06719 9.07889 7.27915 9.16669 7.50016 9.16669C7.72117 9.16669 7.93314 9.07889 8.08942 8.92261C8.2457 8.76633 8.33349 8.55437 8.33349 8.33335V7.50002H11.6668V8.33335C11.6668 8.55437 11.7546 8.76633 11.9109 8.92261C12.0672 9.07889 12.2791 9.16669 12.5002 9.16669C12.7212 9.16669 12.9331 9.07889 13.0894 8.92261C13.2457 8.76633 13.3335 8.55437 13.3335 8.33335V7.50002H15.0002V15.8334Z" fill="#111111" />
    </symbol>
    <symbol id="icon-shopping-bag2" viewBox="0 0 20 20">
      <path d="M15.8335 5.83335H13.3335V5.00002C13.3335 4.11596 12.9823 3.26812 12.3572 2.643C11.7321 2.01788 10.8842 1.66669 10.0002 1.66669C9.11611 1.66669 8.26826 2.01788 7.64314 2.643C7.01802 3.26812 6.66683 4.11596 6.66683 5.00002V5.83335H4.16683C3.94582 5.83335 3.73385 5.92115 3.57757 6.07743C3.42129 6.23371 3.3335 6.44567 3.3335 6.66669V15.8334C3.3335 16.4964 3.59689 17.1323 4.06573 17.6011C4.53457 18.07 5.17045 18.3334 5.8335 18.3334H14.1668C14.8299 18.3334 15.4658 18.07 15.9346 17.6011C16.4034 17.1323 16.6668 16.4964 16.6668 15.8334V6.66669C16.6668 6.44567 16.579 6.23371 16.4227 6.07743C16.2665 5.92115 16.0545 5.83335 15.8335 5.83335ZM8.33349 5.00002C8.33349 4.55799 8.50909 4.13407 8.82165 3.82151C9.13421 3.50895 9.55813 3.33335 10.0002 3.33335C10.4422 3.33335 10.8661 3.50895 11.1787 3.82151C11.4912 4.13407 11.6668 4.55799 11.6668 5.00002V5.83335H8.33349V5.00002ZM15.0002 15.8334C15.0002 16.0544 14.9124 16.2663 14.7561 16.4226C14.5998 16.5789 14.3878 16.6667 14.1668 16.6667H5.8335C5.61248 16.6667 5.40052 16.5789 5.24424 16.4226C5.08796 16.2663 5.00016 16.0544 5.00016 15.8334V7.50002H6.66683V8.33335C6.66683 8.55437 6.75463 8.76633 6.91091 8.92261C7.06719 9.07889 7.27915 9.16669 7.50016 9.16669C7.72117 9.16669 7.93314 9.07889 8.08942 8.92261C8.2457 8.76633 8.33349 8.55437 8.33349 8.33335V7.50002H11.6668V8.33335C11.6668 8.55437 11.7546 8.76633 11.9109 8.92261C12.0672 9.07889 12.2791 9.16669 12.5002 9.16669C12.7212 9.16669 12.9331 9.07889 13.0894 8.92261C13.2457 8.76633 13.3335 8.55437 13.3335 8.33335V7.50002H15.0002V15.8334Z" fill="#fff" />
    </symbol>
    <symbol id="icon-right-singl-up" viewBox="0 0 20 20">
    <path d="M3.33325 10H16.6666M16.6666 10L11.6666 5M16.6666 10L11.6666 15" stroke="#EAC645" stroke-width="2" stroke-linecap="round" stroke-linejoin="round" />
    </symbol>
    <symbol id="icon-free-user" viewBox="0 0 32 32">
      <path d="M24 8A8 8 0 1 1 8 8a8 8 0 0 1 16 0zM16 18.667c-6.624.007-11.993 5.376-12 12C4 31.403 4.597 32 5.333 32h21.333c.736 0 1.333-.597 1.333-1.333-.007-6.624-5.376-11.993-12-12z"/>
    </symbol>
    <symbol id="icon-free-icon-email" viewBox="0 0 32 32">
      <path d="M25.333 1.333H6.666A6.676 6.676 0 0 0-.001 7.999v16a6.676 6.676 0 0 0 6.666 6.667h18.667A6.676 6.676 0 0 0 31.999 24V8a6.676 6.676 0 0 0-6.666-6.667zM6.667 4h18.667a4 4 0 0 1 3.697 2.489l.01.027L18.83 16.728c-.725.722-1.725 1.169-2.829 1.169s-2.104-.446-2.829-1.169L2.961 6.516C3.566 5.031 4.996 4.003 6.667 4zm18.666 24H6.666a4 4 0 0 1-4-4V10l8.619 8.613c1.208 1.205 2.874 1.949 4.715 1.949s3.507-.745 4.715-1.95l8.619-8.613v14a4 4 0 0 1-4 4z"/>
    </symbol>
    <symbol id="icon-free-icon-trash" viewBox="0 0 32 32">
      <path d="M28 5.333h-4.133C23.221 2.27 20.542.004 17.334 0h-2.667a6.682 6.682 0 0 0-6.526 5.29l-.008.044H4A1.333 1.333 0 0 0 4 8h1.333v17.333A6.676 6.676 0 0 0 11.999 32h8a6.676 6.676 0 0 0 6.667-6.666V8h1.333a1.333 1.333 0 0 0 0-2.666zM14.667 2.667h2.667a4.009 4.009 0 0 1 3.763 2.639l.009.028H10.895a4.017 4.017 0 0 1 3.772-2.667zM24 25.333a4 4 0 0 1-4 4h-8a4 4 0 0 1-4-4V8h16z"/>
      <path d="M13.333 24c.736 0 1.333-.597 1.333-1.333v-8a1.333 1.333 0 0 0-2.666 0v8c0 .736.597 1.333 1.333 1.333zM18.667 24c.736 0 1.333-.597 1.333-1.333v-8a1.333 1.333 0 0 0-2.666 0v8c0 .736.597 1.333 1.333 1.333z"/>
    </symbol>
    <symbol id="icon-Vector-close" viewBox="0 0 32 32">
      <path d="M32 3.223 28.777 0 16 12.777 3.223 0 0 3.223 12.777 16 0 28.777 3.223 32 16 19.223 28.777 32 32 28.777 19.223 16 32 3.223z"/>
    </symbol>
    <symbol id="icon-Vector-Up" viewBox="0 0 56 32">
      <path d="M25.397 10.866A3.675 3.675 0 0 1 28 9.781a3.67 3.67 0 0 1 2.603 1.085l16.794 16.83A3.675 3.675 0 0 0 50 28.781a3.67 3.67 0 0 0 2.603-6.255l-16.83-16.83a10.998 10.998 0 0 0-15.546 0l-16.83 16.83a3.669 3.669 0 0 0-.791 3.975A3.659 3.659 0 0 0 4.59 28.5a3.651 3.651 0 0 0 2.82 0 3.659 3.659 0 0 0 1.193-.803l16.793-16.83z"/>
    </symbol>
    <symbol id="icon-Vector-left" viewBox="0 0 18 32">
      <path d="M6.208 17.488a2.082 2.082 0 0 1-.459-2.294c.106-.256.262-.487.459-.682l9.617-9.596a2.108 2.108 0 0 0 .62-1.488 2.104 2.104 0 0 0-.62-1.488 2.097 2.097 0 0 0-2.954 0l-9.617 9.617a6.286 6.286 0 0 0 0 8.884l9.617 9.617a2.099 2.099 0 0 0 3.574-1.487 2.104 2.104 0 0 0-.62-1.488l-9.617-9.596z"/>
    </symbol>
    <symbol id="icon-Vector-right" viewBox="0 0 18 32">
      <path d="M12.343 17.622a2.279 2.279 0 0 0 .676-1.623 2.287 2.287 0 0 0-.676-1.623L1.852 3.907a2.279 2.279 0 0 1-.676-1.623A2.284 2.284 0 0 1 1.852.661a2.285 2.285 0 0 1 3.222 0l10.491 10.491a6.859 6.859 0 0 1 0 9.692L5.074 31.335a2.289 2.289 0 0 1-3.898-1.623 2.29 2.29 0 0 1 .676-1.623l10.491-10.468z"/>
    </symbol>
    <symbol id="icon-Vector-emblem" viewBox="0 0 20 32">
      <path d="M9.005 30.888a8.64 8.64 0 0 1-3.414-5.351H0V2.42c2.991 1.443 5.153 4.599 5.388 7.876l.846 6.493-.407-.045c-.893 0-1.676.812-1.676 1.608 0 .752.595 1.383 1.378 1.548l1.018.226c1.676-3.051 2.631-6.042 2.631-8.973 0-2.645-.36-5.291-.423-7.996 0-1.202.486-2.3 1.253-3.156.783.857 1.253 1.954 1.253 3.156 0 2.705-.423 5.351-.423 7.996 0 2.931.955 5.922 2.631 8.973l1.018-.226c.783-.165 1.378-.812 1.378-1.548 0-.812-.783-1.608-1.676-1.608l-.423.06.846-6.493c.423-3.277 2.396-6.448 5.388-7.876v23.117h-5.576c-.423 2.179-1.613 4.148-3.414 5.351-.423.286-.783.631-1.018 1.097-.219-.466-.579-.812-.987-1.112zM2.647 17.556c.235-.857.893-1.608 1.738-2.074l-.658-5.351a8.288 8.288 0 0 0-2.036-4.374v11.784h.955v.015zm2.819 6.373c0-.812.125-1.548.298-2.3l-.783-.18c-1.143-.346-2.036-1.203-2.334-2.3h-.955v4.78h3.774zm3.712 0c0-.977-.783-1.834-1.801-1.954-.172.631-.298 1.263-.298 1.954h2.099zm0 1.623H7.314c.298 1.263.955 2.42 1.864 3.397v-3.397zm2.631-5.005c-.72-1.262-1.378-2.585-1.801-3.968-.423 1.383-1.081 2.706-1.801 3.968.72.165 1.316.631 1.801 1.157.486-.526 1.081-.992 1.801-1.157zm1.143 3.382c0-.691-.125-1.323-.297-1.954-1.018.12-1.801.977-1.801 1.954h2.099zm-.235 1.623h-1.864v3.397c.908-.992 1.566-2.134 1.864-3.397zm5.623-1.623v-4.78h-.955c-.298 1.097-1.206 1.954-2.334 2.3l-.783.18c.172.752.298 1.488.298 2.3h3.774zm0-6.373V5.757c-1.081 1.202-1.864 2.706-2.036 4.374l-.658 5.351c.846.466 1.504 1.203 1.739 2.074h.955z"/>
    </symbol>
    <symbol id="icon-logo1" viewBox="0 0 32 32">
      <path fill="#f6f6f6" style="fill:var(--color1, #f6f6f6)" d="m0 0 16.343 16.171L32 32V0H0z"/>
      <path fill="#f6f6f6" style="fill:var(--color1, #f6f6f6)" d="M4.457 4.229 16.4 16.058l11.257 11.486h-23.2V4.23z"/>
      <path fill="#4f2ee8" style="fill:var(--color2, #4f2ee8)" d="M27.733 27.618 15.79 15.789 4.533 4.303h23.2v23.314z"/>
      <path fill="#4f2ee8" style="fill:var(--color2, #4f2ee8)" d="m9.257 9.029 13.6 13.6h-13.6v-13.6z"/>
      <path fill="#f6f6f6" style="fill:var(--color1, #f6f6f6)" d="m9.257 9.029 13.6 13.6v-13.6h-13.6z"/>
    </symbol>
    <symbol id="icon-menu" viewBox="0 0 28 28">
      <path d="M19.8333 11.6667H3.5" stroke="#111111" stroke-width="2" stroke-linecap="round" stroke-linejoin="round" />
      <path d="M24.5 7H3.5" stroke="#111111" stroke-width="2" stroke-linecap="round" stroke-linejoin="round" />
      <path d="M24.5 16.3333H3.5" stroke="#111111" stroke-width="2" stroke-linecap="round" stroke-linejoin="round" />
      <path d="M19.8333 21H3.5" stroke="#111111" stroke-width="2" stroke-linecap="round" stroke-linejoin="round" />
    </symbol>
        <symbol id="icon-menu2" viewBox="0 0 28 28">
      <path d="M19.8333 11.6667H3.5" stroke="#ffffff" stroke-width="2" stroke-linecap="round" stroke-linejoin="round" />
      <path d="M24.5 7H3.5" stroke="#ffffff" stroke-width="2" stroke-linecap="round" stroke-linejoin="round" />
      <path d="M24.5 16.3333H3.5" stroke="#ffffff" stroke-width="2" stroke-linecap="round" stroke-linejoin="round" />
      <path d="M19.8333 21H3.5" stroke="#ffffff" stroke-width="2" stroke-linecap="round" stroke-linejoin="round" />
    </symbol>
    <symbol id="icon-close" viewBox="0 0 32 32">
      <path stroke-linejoin="round" stroke-linecap="round" stroke-width="5.333" d="M28.444 3.556 3.555 28.445m.001-24.889 24.889 24.889"/>
    </symbol>
    <symbol id="icon-icon-basket" viewBox="0 0 32 32">
      <path stroke-linejoin="round" stroke-linecap="round" stroke-width="2.667" d="M23.778 14.444V9.777c0-4.296-3.482-7.778-7.778-7.778S8.222 5.481 8.222 9.777v4.667M9.467 30h13.067c2.614 0 3.92 0 4.919-.509a4.662 4.662 0 0 0 2.039-2.039c.509-.998.509-2.305.509-4.919v-.622c0-2.614 0-3.92-.509-4.919a4.662 4.662 0 0 0-2.039-2.039c-.998-.509-2.305-.509-4.919-.509H9.467c-2.614 0-3.92 0-4.919.509a4.662 4.662 0 0 0-2.039 2.039C2 17.99 2 19.297 2 21.911v.622c0 2.614 0 3.92.509 4.919a4.662 4.662 0 0 0 2.039 2.039C5.546 30 6.853 30 9.467 30z"/>
    </symbol>
    <symbol id="icon-Icon-remove" viewBox="0 0 32 32">
      <path stroke-linejoin="round" stroke-linecap="round" stroke-width="3.2" d="M11.6 2.8h8.8M2.8 7.2h26.4m-2.933 0-1.029 15.428c-.154 2.315-.232 3.472-.731 4.35a4.397 4.397 0 0 1-1.904 1.781c-.909.44-2.069.44-4.389.44h-4.427c-2.32 0-3.48 0-4.389-.44a4.403 4.403 0 0 1-1.904-1.781c-.5-.878-.577-2.035-.731-4.35L5.734 7.2m7.333 6.6v7.333m5.866-7.333v7.333"/>
    </symbol>
    <symbol id="icon-Vector-user" viewBox="0 0 23 32">
      <path d="M.296 30.963a11.26 11.26 0 1 1 22.519 0H.297zm11.26-12.667c-4.666 0-8.444-3.779-8.444-8.444s3.779-8.444 8.444-8.444C16.222 1.408 20 5.187 20 9.852s-3.779 8.444-8.444 8.444z"/>
    </symbol>
    <symbol id="icon-Vector" viewBox="0 0 23 32">
      <path fill="#4f2ee8" style="fill:var(--color2, #4f2ee8)" d="M.296 30.963a11.26 11.26 0 1 1 22.519 0H.297zm11.26-12.667c-4.666 0-8.444-3.779-8.444-8.444s3.779-8.444 8.444-8.444C16.222 1.408 20 5.187 20 9.852s-3.779 8.444-8.444 8.444z"/>
    </symbol>
    <symbol id="icon-Icon-arrow" viewBox="0 0 43 32">
      <path stroke-linejoin="round" stroke-linecap="round" stroke-width="5.333" d="M3.555 16h35.556m0 0L25.778 2.667M39.111 16 25.778 29.333"/>
    </symbol>
    <symbol id="icon-Vector-1" viewBox="0 0 55 32">
      <path d="M1.091 25.309 25.527.8c.291-.291.606-.496.945-.617.339-.122.703-.183 1.091-.183s.752.061 1.091.183c.339.12.655.326.946.617l24.509 24.509c.679.679 1.018 1.527 1.018 2.545s-.364 1.891-1.091 2.618c-.727.727-1.576 1.091-2.545 1.091s-1.818-.364-2.545-1.091L27.564 9.09 6.182 30.472c-.679.679-1.515 1.018-2.508 1.018-.995 0-1.856-.364-2.583-1.091S0 28.823 0 27.854c0-.97.364-1.818 1.091-2.545z"/>
    </symbol>
    <symbol id="icon-Icon-book" viewBox="0 0 35 32">
      <path d="M34.352 7.713A16.665 16.665 0 0 0 32 6.712v19.742a16.089 16.089 0 0 0-5.6-1.017c-3.04 0-6.048.886-8.8 2.593V8.174c-2.592-1.526-5.584-2.429-8.8-2.429-2.864 0-5.568.722-7.952 1.969C.32 7.977 0 8.551 0 9.158v19.824a1.6 1.6 0 0 0 1.6 1.625c.256 0 .512-.066.768-.197 1.936-1.034 4.112-1.69 6.432-1.69 3.312 0 6.368 1.346 8.8 3.282 2.432-1.936 5.488-3.282 8.8-3.282 2.32 0 4.496.656 6.432 1.707.256.131.512.197.768.197.832 0 1.6-.673 1.6-1.625V9.159c0-.607-.32-1.182-.848-1.444zM14.4 26.453c-1.824-.673-3.696-1.017-5.6-1.017s-3.776.345-5.6 1.017V10.19a13.941 13.941 0 0 1 5.6-1.165c1.92 0 3.824.41 5.6 1.182v16.246zM28.8 0l-8 8.205v15.59l8-7.385V0z"/>
    </symbol>
    <symbol id="icon-fi-rr-angle-small-left" viewBox="0 0 32 32">
      <path d="M15.053 17.867a1.334 1.334 0 0 0 1.894 0l6.107-6.12a1.334 1.334 0 1 1 1.894 1.88l-6.12 6.12a4.001 4.001 0 0 1-5.654 0l-6.12-6.12a1.337 1.337 0 0 1 .434-2.172 1.331 1.331 0 0 1 1.46.292l6.107 6.12z"/>
    </symbol>
  </defs>
</svg>
