<svg aria-hidden="true" style="position:absolute;width:0;height:0;overflow:hidden" xmlns="http://www.w3.org/2000/svg">
  <defs>
    <symbol id="icon-logo2" viewBox="0 0 125 32">
      <path fill="#f6f6f6" style="fill:var(--color1, #f6f6f6)" d="m0 2.286 14.008 13.861 13.42 13.567V2.285H-.001z"/>
      <path fill="#f6f6f6" style="fill:var(--color1, #f6f6f6)" d="m3.82 5.91 10.237 10.139 9.649 9.845H3.82V5.91z"/>
      <path fill="#4f2ee8" style="fill:var(--color2, #4f2ee8)" d="M23.771 25.959 13.534 15.82 3.885 5.975h19.886v19.984z"/>
      <path fill="#4f2ee8" style="fill:var(--color2, #4f2ee8)" d="m7.935 10.024 11.657 11.657H7.935V10.024z"/>
      <path fill="#f6f6f6" style="fill:var(--color1, #f6f6f6)" d="m7.935 10.024 11.657 11.657V10.024H7.935z"/>
      <path fill="#f3f3f3" style="fill:var(--color3, #f3f3f3)" d="M124.573 10.333V8.564a7.6 7.6 0 0 0-1.44-.144c-1.728 0-2.674.782-2.674 3.003v1.337h-1.502v1.769h1.502v8.743h2.181v-8.743h1.934V12.76h-1.934v-1.152c0-1.193.535-1.337 1.934-1.275zm-76.914 1.933c0-2.366-1.748-3.703-4.773-3.703h-6.315v14.709h6.665c3.045 0 4.999-1.461 4.999-4.299 0-2.201-1.317-3.333-2.859-3.6v-.041c1.214-.411 2.283-1.255 2.283-3.065zm25.148-3.703v14.709h2.16v-3.806l1.461-1.378 3.312 5.184h2.592l-4.423-6.603L81.9 12.76h-2.654l-4.279 4.217V8.563h-2.16zm25.826 3.909c-1.769 0-2.859.823-3.415 1.646h-.041V8.564h-2.16v14.709h2.16v-6.398c0-1.563 1.131-2.571 2.716-2.571 1.502 0 2.098.905 2.098 2.325v6.645h2.181v-7.262c0-2.407-1.543-3.538-3.538-3.538zm16.704-3.909v14.709h2.181V8.563h-2.181zm-76.317 6.09v-4.011h3.929c1.46 0 2.263.72 2.263 2.016s-.658 1.995-2.407 1.995H39.02zm10.209 3.373c0 3.271 1.996 5.554 5.287 5.554s5.287-2.283 5.287-5.554-1.996-5.554-5.287-5.554-5.287 2.283-5.287 5.554zm11.512 0c0 3.271 1.996 5.554 5.287 5.554s5.287-2.283 5.287-5.554-1.995-5.554-5.287-5.554c-3.291 0-5.287 2.283-5.287 5.554zm26.798-1.111c-1.522-.35-2.695-.432-2.695-1.502 0-.741.699-1.234 1.995-1.234 1.687 0 2.098.843 2.242 1.666h2.099c-.144-1.831-1.502-3.374-4.361-3.374-2.633 0-4.155 1.378-4.155 3.106 0 2.386 2.263 2.715 3.929 3.106 1.543.37 2.798.473 2.798 1.79 0 .658-.638 1.399-2.139 1.399-2.222 0-2.715-.967-2.818-2.098h-2.098c.103 2.222 1.563 3.806 4.958 3.806 2.551 0 4.279-1.255 4.279-3.271 0-2.51-2.099-2.942-4.032-3.394zm21.257 4.896c-1.913 0-3.045-1.461-3.045-3.23h8.064c0-3.744-1.666-6.11-5.06-6.11-3.168 0-5.164 2.139-5.164 5.554 0 3.291 1.996 5.554 5.266 5.554 2.695 0 4.258-1.522 4.793-3.518h-2.16c-.185.638-.905 1.749-2.695 1.749zm-.041-7.632c1.749 0 2.901 1.173 2.901 2.798h-5.904c0-1.625 1.255-2.798 3.003-2.798zm-51.112 3.847c0 2.16-1.07 3.785-3.127 3.785s-3.127-1.625-3.127-3.785c0-2.181 1.07-3.785 3.127-3.785s3.127 1.605 3.127 3.785zm11.511 0c0 2.16-1.07 3.785-3.127 3.785S62.9 20.186 62.9 18.026c0-2.181 1.07-3.785 3.127-3.785s3.127 1.605 3.127 3.785zM39.02 16.483h4.299c1.543 0 2.468.843 2.468 2.345 0 1.378-.638 2.366-2.736 2.366h-4.032v-4.711z"/>
    </symbol>
    <symbol id="icon-logo" viewBox="0 0 125 32">
      <path fill="#f6f6f6" style="fill:var(--color1, #f6f6f6)" d="m0 2.286 14.008 13.861 13.42 13.567V2.285H-.001z"/>
      <path fill="#f6f6f6" style="fill:var(--color1, #f6f6f6)" d="m3.82 5.91 10.237 10.139 9.649 9.845H3.82V5.91z"/>
      <path fill="#4f2ee8" style="fill:var(--color2, #4f2ee8)" d="M23.771 25.959 13.534 15.82 3.885 5.975h19.886v19.984z"/>
      <path fill="#4f2ee8" style="fill:var(--color2, #4f2ee8)" d="m7.935 10.024 11.657 11.657H7.935V10.024z"/>
      <path fill="#f6f6f6" style="fill:var(--color1, #f6f6f6)" d="m7.935 10.024 11.657 11.657V10.024H7.935z"/>
      <path style="fill:var(--color4, #000)" d="M124.573 10.333V8.564a7.6 7.6 0 0 0-1.44-.144c-1.728 0-2.674.782-2.674 3.003v1.337h-1.502v1.769h1.502v8.743h2.181v-8.743h1.934V12.76h-1.934v-1.152c0-1.193.535-1.337 1.934-1.275zm-76.914 1.933c0-2.366-1.748-3.703-4.773-3.703h-6.315v14.709h6.665c3.045 0 4.999-1.461 4.999-4.299 0-2.201-1.317-3.333-2.859-3.6v-.041c1.214-.411 2.283-1.255 2.283-3.065zm25.148-3.703v14.709h2.16v-3.806l1.461-1.378 3.312 5.184h2.592l-4.423-6.603L81.9 12.76h-2.654l-4.279 4.217V8.563h-2.16zm25.826 3.909c-1.769 0-2.859.823-3.415 1.646h-.041V8.564h-2.16v14.709h2.16v-6.398c0-1.563 1.131-2.571 2.716-2.571 1.502 0 2.098.905 2.098 2.325v6.645h2.181v-7.262c0-2.407-1.543-3.538-3.538-3.538zm16.704-3.909v14.709h2.181V8.563h-2.181zm-76.317 6.09v-4.011h3.929c1.46 0 2.263.72 2.263 2.016s-.658 1.995-2.407 1.995H39.02zm10.209 3.373c0 3.271 1.996 5.554 5.287 5.554s5.287-2.283 5.287-5.554-1.996-5.554-5.287-5.554-5.287 2.283-5.287 5.554zm11.512 0c0 3.271 1.996 5.554 5.287 5.554s5.287-2.283 5.287-5.554-1.995-5.554-5.287-5.554c-3.291 0-5.287 2.283-5.287 5.554zm26.798-1.111c-1.522-.35-2.695-.432-2.695-1.502 0-.741.699-1.234 1.995-1.234 1.687 0 2.098.843 2.242 1.666h2.099c-.144-1.831-1.502-3.374-4.361-3.374-2.633 0-4.155 1.378-4.155 3.106 0 2.386 2.263 2.715 3.929 3.106 1.543.37 2.798.473 2.798 1.79 0 .658-.638 1.399-2.139 1.399-2.222 0-2.715-.967-2.818-2.098h-2.098c.103 2.222 1.563 3.806 4.958 3.806 2.551 0 4.279-1.255 4.279-3.271 0-2.51-2.099-2.942-4.032-3.394zm21.257 4.896c-1.913 0-3.045-1.461-3.045-3.23h8.064c0-3.744-1.666-6.11-5.06-6.11-3.168 0-5.164 2.139-5.164 5.554 0 3.291 1.996 5.554 5.266 5.554 2.695 0 4.258-1.522 4.793-3.518h-2.16c-.185.638-.905 1.749-2.695 1.749zm-.041-7.632c1.749 0 2.901 1.173 2.901 2.798h-5.904c0-1.625 1.255-2.798 3.003-2.798zm-51.112 3.847c0 2.16-1.07 3.785-3.127 3.785s-3.127-1.625-3.127-3.785c0-2.181 1.07-3.785 3.127-3.785s3.127 1.605 3.127 3.785zm11.511 0c0 2.16-1.07 3.785-3.127 3.785S62.9 20.186 62.9 18.026c0-2.181 1.07-3.785 3.127-3.785s3.127 1.605 3.127 3.785zM39.02 16.483h4.299c1.543 0 2.468.843 2.468 2.345 0 1.378-.638 2.366-2.736 2.366h-4.032v-4.711z"/>
    </symbol>
    <symbol id="icon-burger" viewBox="0 0 32 32">
      <path stroke-linejoin="round" stroke-linecap="round" stroke-width="2.286" d="M22.667 13.333H4M28 8H4M28 18.667H4M22.667 24H4"/>
    </symbol>
    <symbol id="icon-Vector-Up" viewBox="0 0 56 32">
      <path d="M25.397 10.866A3.675 3.675 0 0 1 28 9.781a3.67 3.67 0 0 1 2.603 1.085l16.794 16.83A3.675 3.675 0 0 0 50 28.781a3.67 3.67 0 0 0 2.603-6.255l-16.83-16.83a10.998 10.998 0 0 0-15.546 0l-16.83 16.83a3.669 3.669 0 0 0-.791 3.975A3.659 3.659 0 0 0 4.59 28.5a3.651 3.651 0 0 0 2.82 0 3.659 3.659 0 0 0 1.193-.803l16.793-16.83z"/>
    </symbol>
    <symbol id="icon-Vector-left" viewBox="0 0 18 32">
      <path d="M6.208 17.488a2.082 2.082 0 0 1-.459-2.294c.106-.256.262-.487.459-.682l9.617-9.596a2.108 2.108 0 0 0 .62-1.488 2.104 2.104 0 0 0-.62-1.488 2.097 2.097 0 0 0-2.954 0l-9.617 9.617a6.286 6.286 0 0 0 0 8.884l9.617 9.617a2.099 2.099 0 0 0 3.574-1.487 2.104 2.104 0 0 0-.62-1.488l-9.617-9.596z"/>
    </symbol>
    <symbol id="icon-Vector-right" viewBox="0 0 18 32">
      <path d="M12.343 17.622a2.279 2.279 0 0 0 .676-1.623 2.287 2.287 0 0 0-.676-1.623L1.852 3.907a2.279 2.279 0 0 1-.676-1.623A2.284 2.284 0 0 1 1.852.661a2.285 2.285 0 0 1 3.222 0l10.491 10.491a6.859 6.859 0 0 1 0 9.692L5.074 31.335a2.289 2.289 0 0 1-3.898-1.623 2.29 2.29 0 0 1 .676-1.623l10.491-10.468z"/>
    </symbol>
    <symbol id="icon-point" viewBox="0 0 104 32">
      <path d="M17.44 24.96c-3.2 0-5.867-1.013-8-3.04-2.027-2.133-3.04-4.64-3.04-7.52 0-2.987 1.013-5.493 3.04-7.52 2.133-2.133 4.8-3.2 8-3.2s5.813 1.067 7.84 3.2c2.027 2.027 3.04 4.533 3.04 7.52 0 2.88-1.013 5.387-3.04 7.52-2.027 2.027-4.64 3.04-7.84 3.04zm34.688 0c-3.2 0-5.867-1.013-8-3.04-2.027-2.133-3.04-4.64-3.04-7.52 0-2.987 1.013-5.493 3.04-7.52 2.133-2.133 4.8-3.2 8-3.2s5.813 1.067 7.84 3.2c2.027 2.027 3.04 4.533 3.04 7.52 0 2.88-1.013 5.387-3.04 7.52-2.027 2.027-4.64 3.04-7.84 3.04zm34.687 0c-3.2 0-5.867-1.013-8-3.04-2.027-2.133-3.04-4.64-3.04-7.52 0-2.987 1.013-5.493 3.04-7.52 2.133-2.133 4.8-3.2 8-3.2s5.813 1.067 7.84 3.2c2.026 2.027 3.04 4.533 3.04 7.52 0 2.88-1.014 5.387-3.04 7.52-2.027 2.027-4.64 3.04-7.84 3.04z"/>
    </symbol>
    <symbol id="icon-Vector-emblem" viewBox="0 0 20 32">
      <path d="M9.005 30.888a8.64 8.64 0 0 1-3.414-5.351H0V2.42c2.991 1.443 5.153 4.599 5.388 7.876l.846 6.493-.407-.045c-.893 0-1.676.812-1.676 1.608 0 .752.595 1.383 1.378 1.548l1.018.226c1.676-3.051 2.631-6.042 2.631-8.973 0-2.645-.36-5.291-.423-7.996 0-1.202.486-2.3 1.253-3.156.783.857 1.253 1.954 1.253 3.156 0 2.705-.423 5.351-.423 7.996 0 2.931.955 5.922 2.631 8.973l1.018-.226c.783-.165 1.378-.812 1.378-1.548 0-.812-.783-1.608-1.676-1.608l-.423.06.846-6.493c.423-3.277 2.396-6.448 5.388-7.876v23.117h-5.576c-.423 2.179-1.613 4.148-3.414 5.351-.423.286-.783.631-1.018 1.097-.219-.466-.579-.812-.987-1.112zM2.647 17.556c.235-.857.893-1.608 1.738-2.074l-.658-5.351a8.288 8.288 0 0 0-2.036-4.374v11.784h.955v.015zm2.819 6.373c0-.812.125-1.548.298-2.3l-.783-.18c-1.143-.346-2.036-1.203-2.334-2.3h-.955v4.78h3.774zm3.712 0c0-.977-.783-1.834-1.801-1.954-.172.631-.298 1.263-.298 1.954h2.099zm0 1.623H7.314c.298 1.263.955 2.42 1.864 3.397v-3.397zm2.631-5.005c-.72-1.262-1.378-2.585-1.801-3.968-.423 1.383-1.081 2.706-1.801 3.968.72.165 1.316.631 1.801 1.157.486-.526 1.081-.992 1.801-1.157zm1.143 3.382c0-.691-.125-1.323-.297-1.954-1.018.12-1.801.977-1.801 1.954h2.099zm-.235 1.623h-1.864v3.397c.908-.992 1.566-2.134 1.864-3.397zm5.623-1.623v-4.78h-.955c-.298 1.097-1.206 1.954-2.334 2.3l-.783.18c.172.752.298 1.488.298 2.3h3.774zm0-6.373V5.757c-1.081 1.202-1.864 2.706-2.036 4.374l-.658 5.351c.846.466 1.504 1.203 1.739 2.074h.955z"/>
    </symbol>
    <symbol id="icon-logo1" viewBox="0 0 32 32">
      <path fill="#f6f6f6" style="fill:var(--color1, #f6f6f6)" d="m0 0 16.343 16.171L32 32V0H0z"/>
      <path fill="#f6f6f6" style="fill:var(--color1, #f6f6f6)" d="M4.457 4.229 16.4 16.058l11.257 11.486h-23.2V4.23z"/>
      <path fill="#4f2ee8" style="fill:var(--color2, #4f2ee8)" d="M27.733 27.618 15.79 15.789 4.533 4.303h23.2v23.314z"/>
      <path fill="#4f2ee8" style="fill:var(--color2, #4f2ee8)" d="m9.257 9.029 13.6 13.6h-13.6v-13.6z"/>
      <path fill="#f6f6f6" style="fill:var(--color1, #f6f6f6)" d="m9.257 9.029 13.6 13.6v-13.6h-13.6z"/>
    </symbol>
    <symbol id="icon-menu" viewBox="0 0 28 28">
      <path d="M19.8333 11.6667H3.5" stroke="#111111" stroke-width="2" stroke-linecap="round" stroke-linejoin="round" />
      <path d="M24.5 7H3.5" stroke="#111111" stroke-width="2" stroke-linecap="round" stroke-linejoin="round" />
      <path d="M24.5 16.3333H3.5" stroke="#111111" stroke-width="2" stroke-linecap="round" stroke-linejoin="round" />
      <path d="M19.8333 21H3.5" stroke="#111111" stroke-width="2" stroke-linecap="round" stroke-linejoin="round" />
    </symbol>
    <symbol id="icon-menu2" viewBox="0 0 28 28">
      <path d="M19.8333 11.6667H3.5" stroke="#ffffff" stroke-width="2" stroke-linecap="round" stroke-linejoin="round" />
      <path d="M24.5 7H3.5" stroke="#ffffff" stroke-width="2" stroke-linecap="round" stroke-linejoin="round" />
      <path d="M24.5 16.3333H3.5" stroke="#ffffff" stroke-width="2" stroke-linecap="round" stroke-linejoin="round" />
      <path d="M19.8333 21H3.5" stroke="#ffffff" stroke-width="2" stroke-linecap="round" stroke-linejoin="round" />
    </symbol>
    <symbol id="icon-close" viewBox="0 0 32 32">
      <path stroke-linejoin="round" stroke-linecap="round" stroke-width="5.333" d="M28.444 3.556 3.555 28.445m.001-24.889 24.889 24.889"/>
    </symbol>
    <symbol id="icon-icon-basket" viewBox="0 0 14 18">
      <path d="M12.8335 4.83335H10.3335V4.00002C10.3335 3.11596 9.9823 2.26812 9.35718 1.643C8.73206 1.01788 7.88421 0.666687 7.00016 0.666687C6.11611 0.666687 5.26826 1.01788 4.64314 1.643C4.01802 2.26812 3.66683 3.11596 3.66683 4.00002V4.83335H1.16683C0.945815 4.83335 0.733854 4.92115 0.577574 5.07743C0.421294 5.23371 0.333496 5.44567 0.333496 5.66669V14.8334C0.333496 15.4964 0.596888 16.1323 1.06573 16.6011C1.53457 17.07 2.17045 17.3334 2.8335 17.3334H11.1668C11.8299 17.3334 12.4658 17.07 12.9346 16.6011C13.4034 16.1323 13.6668 15.4964 13.6668 14.8334V5.66669C13.6668 5.44567 13.579 5.23371 13.4227 5.07743C13.2665 4.92115 13.0545 4.83335 12.8335 4.83335ZM5.33349 4.00002C5.33349 3.55799 5.50909 3.13407 5.82165 2.82151C6.13421 2.50895 6.55813 2.33335 7.00016 2.33335C7.44219 2.33335 7.86611 2.50895 8.17867 2.82151C8.49123 3.13407 8.66683 3.55799 8.66683 4.00002V4.83335H5.33349V4.00002ZM12.0002 14.8334C12.0002 15.0544 11.9124 15.2663 11.7561 15.4226C11.5998 15.5789 11.3878 15.6667 11.1668 15.6667H2.8335C2.61248 15.6667 2.40052 15.5789 2.24424 15.4226C2.08796 15.2663 2.00016 15.0544 2.00016 14.8334V6.50002H3.66683V7.33335C3.66683 7.55437 3.75463 7.76633 3.91091 7.92261C4.06719 8.07889 4.27915 8.16669 4.50016 8.16669C4.72117 8.16669 4.93314 8.07889 5.08942 7.92261C5.2457 7.76633 5.33349 7.55437 5.33349 7.33335V6.50002H8.66683V7.33335C8.66683 7.55437 8.75462 7.76633 8.9109 7.92261C9.06718 8.07889 9.27915 8.16669 9.50016 8.16669C9.72117 8.16669 9.93313 8.07889 10.0894 7.92261C10.2457 7.76633 10.3335 7.55437 10.3335 7.33335V6.50002H12.0002V14.8334Z" fill="#111111" />
    </symbol>
        <symbol id="icon-icon-basket2" viewBox="0 0 14 18">
      <path d="M12.8335 4.83335H10.3335V4.00002C10.3335 3.11596 9.9823 2.26812 9.35718 1.643C8.73206 1.01788 7.88421 0.666687 7.00016 0.666687C6.11611 0.666687 5.26826 1.01788 4.64314 1.643C4.01802 2.26812 3.66683 3.11596 3.66683 4.00002V4.83335H1.16683C0.945815 4.83335 0.733854 4.92115 0.577574 5.07743C0.421294 5.23371 0.333496 5.44567 0.333496 5.66669V14.8334C0.333496 15.4964 0.596888 16.1323 1.06573 16.6011C1.53457 17.07 2.17045 17.3334 2.8335 17.3334H11.1668C11.8299 17.3334 12.4658 17.07 12.9346 16.6011C13.4034 16.1323 13.6668 15.4964 13.6668 14.8334V5.66669C13.6668 5.44567 13.579 5.23371 13.4227 5.07743C13.2665 4.92115 13.0545 4.83335 12.8335 4.83335ZM5.33349 4.00002C5.33349 3.55799 5.50909 3.13407 5.82165 2.82151C6.13421 2.50895 6.55813 2.33335 7.00016 2.33335C7.44219 2.33335 7.86611 2.50895 8.17867 2.82151C8.49123 3.13407 8.66683 3.55799 8.66683 4.00002V4.83335H5.33349V4.00002ZM12.0002 14.8334C12.0002 15.0544 11.9124 15.2663 11.7561 15.4226C11.5998 15.5789 11.3878 15.6667 11.1668 15.6667H2.8335C2.61248 15.6667 2.40052 15.5789 2.24424 15.4226C2.08796 15.2663 2.00016 15.0544 2.00016 14.8334V6.50002H3.66683V7.33335C3.66683 7.55437 3.75463 7.76633 3.91091 7.92261C4.06719 8.07889 4.27915 8.16669 4.50016 8.16669C4.72117 8.16669 4.93314 8.07889 5.08942 7.92261C5.2457 7.76633 5.33349 7.55437 5.33349 7.33335V6.50002H8.66683V7.33335C8.66683 7.55437 8.75462 7.76633 8.9109 7.92261C9.06718 8.07889 9.27915 8.16669 9.50016 8.16669C9.72117 8.16669 9.93313 8.07889 10.0894 7.92261C10.2457 7.76633 10.3335 7.55437 10.3335 7.33335V6.50002H12.0002V14.8334Z" fill="#ffffff" />
    </symbol>
    <symbol id="icon-Icon-email" viewBox="0 0 38 32">
      <path stroke-linejoin="round" stroke-linecap="round" stroke-width="2.909" d="M35.03 26.182 23.757 16m-9.697 0L2.787 26.182M1.939 7.515l13.856 9.699c1.122.785 1.683 1.178 2.293 1.33a3.404 3.404 0 0 0 1.642 0c.61-.152 1.171-.545 2.293-1.33l13.856-9.699M10.085 29.576h17.648c2.851 0 4.277 0 5.366-.555a5.09 5.09 0 0 0 2.225-2.225c.555-1.089.555-2.515.555-5.366V10.569c0-2.851 0-4.277-.555-5.366a5.09 5.09 0 0 0-2.225-2.225c-1.089-.555-2.515-.555-5.366-.555H10.085c-2.851 0-4.277 0-5.366.555a5.09 5.09 0 0 0-2.225 2.225c-.555 1.089-.555 2.515-.555 5.366V21.43c0 2.851 0 4.277.555 5.366a5.09 5.09 0 0 0 2.225 2.225c1.089.555 2.515.555 5.366.555z"/>
    </symbol>
    <symbol id="icon-Icon-remove" viewBox="0 0 32 32">
      <path stroke-linejoin="round" stroke-linecap="round" stroke-width="3.2" d="M11.6 2.8h8.8M2.8 7.2h26.4m-2.933 0-1.029 15.428c-.154 2.315-.232 3.472-.731 4.35a4.397 4.397 0 0 1-1.904 1.781c-.909.44-2.069.44-4.389.44h-4.427c-2.32 0-3.48 0-4.389-.44a4.403 4.403 0 0 1-1.904-1.781c-.5-.878-.577-2.035-.731-4.35L5.734 7.2m7.333 6.6v7.333m5.866-7.333v7.333"/>
    </symbol>
    <symbol id="icon-Vector-user" viewBox="0 0 23 32">
      <path d="M.296 30.963a11.26 11.26 0 1 1 22.519 0H.297zm11.26-12.667c-4.666 0-8.444-3.779-8.444-8.444s3.779-8.444 8.444-8.444C16.222 1.408 20 5.187 20 9.852s-3.779 8.444-8.444 8.444z"/>
    </symbol>
    <symbol id="icon-Icon-arrow" viewBox="0 0 16 12">
      <path d="M1.33325 6H14.6666M14.6666 6L9.66658 1M14.6666 6L9.66658 11" stroke="#EAC645" stroke-width="2" stroke-linecap="round" stroke-linejoin="round" />
    </symbol>
    <symbol id="icon-Icon-book" viewBox="0 0 35 32">
      <path d="M34.352 7.713A16.665 16.665 0 0 0 32 6.712v19.742a16.089 16.089 0 0 0-5.6-1.017c-3.04 0-6.048.886-8.8 2.593V8.174c-2.592-1.526-5.584-2.429-8.8-2.429-2.864 0-5.568.722-7.952 1.969C.32 7.977 0 8.551 0 9.158v19.824a1.6 1.6 0 0 0 1.6 1.625c.256 0 .512-.066.768-.197 1.936-1.034 4.112-1.69 6.432-1.69 3.312 0 6.368 1.346 8.8 3.282 2.432-1.936 5.488-3.282 8.8-3.282 2.32 0 4.496.656 6.432 1.707.256.131.512.197.768.197.832 0 1.6-.673 1.6-1.625V9.159c0-.607-.32-1.182-.848-1.444zM14.4 26.453c-1.824-.673-3.696-1.017-5.6-1.017s-3.776.345-5.6 1.017V10.19a13.941 13.941 0 0 1 5.6-1.165c1.92 0 3.824.41 5.6 1.182v16.246zM28.8 0l-8 8.205v15.59l8-7.385V0z"/>
    </symbol>
    <symbol id="icon-fi-rr-angle-small-left" viewBox="0 0 32 32">
      <path d="M15.053 17.867a1.334 1.334 0 0 0 1.894 0l6.107-6.12a1.334 1.334 0 1 1 1.894 1.88l-6.12 6.12a4.001 4.001 0 0 1-5.654 0l-6.12-6.12a1.337 1.337 0 0 1 .434-2.172 1.331 1.331 0 0 1 1.46.292l6.107 6.12z"/>
    </symbol>
    <symbol id="icon-Vector" viewBox="0 0 25 32">
      <path fill="#fff" style="fill: var(--color1, #fff)" d="M22.814 8.593h-4.444v-1.481c0-1.572-0.624-3.079-1.736-4.19s-2.619-1.736-4.19-1.736c-1.572 0-3.079 0.624-4.19 1.736s-1.736 2.619-1.736 4.19v1.481h-4.444c-0.393 0-0.77 0.156-1.048 0.434s-0.434 0.655-0.434 1.048v16.296c0 1.179 0.468 2.309 1.302 3.143s1.964 1.302 3.143 1.302h14.815c1.179 0 2.309-0.468 3.143-1.302s1.302-1.964 1.302-3.143v-16.296c0-0.393-0.156-0.77-0.434-1.048s-0.655-0.434-1.048-0.434zM9.481 7.111c0-0.786 0.312-1.539 0.868-2.095s1.309-0.868 2.095-0.868c0.786 0 1.539 0.312 2.095 0.868s0.868 1.309 0.868 2.095v1.481h-5.926v-1.481zM21.333 26.37c0 0.393-0.156 0.77-0.434 1.047s-0.655 0.434-1.048 0.434h-14.815c-0.393 0-0.77-0.156-1.048-0.434s-0.434-0.655-0.434-1.047v-14.815h2.963v1.481c0 0.393 0.156 0.77 0.434 1.048s0.655 0.434 1.048 0.434c0.393 0 0.77-0.156 1.048-0.434s0.434-0.655 0.434-1.048v-1.481h5.926v1.481c0 0.393 0.156 0.77 0.434 1.048s0.655 0.434 1.048 0.434c0.393 0 0.77-0.156 1.048-0.434s0.434-0.655 0.434-1.048v-1.481h2.963v14.815z"></path>
    </symbol>
    <symbol id="icon-cart" viewBox="0 0 32 32">
<path fill="none" stroke="#fff" style="stroke: var(--color1, #fff)" stroke-linejoin="round" stroke-linecap="butt" stroke-miterlimit="4" stroke-width="3.2" d="M11.2 1.6h9.6M1.6 6.4h28.8M27.2 6.4l-1.122 16.831c-0.168 2.525-0.252 3.788-0.798 4.745-0.48 0.843-1.204 1.52-2.077 1.943-0.991 0.48-2.257 0.48-4.788 0.48h-4.83c-2.531 0-3.796 0-4.788-0.48-0.873-0.423-1.597-1.101-2.077-1.943-0.546-0.957-0.63-2.22-0.798-4.745l-1.122-16.831M12.8 13.6v8M19.2 13.6v8"></path>
</symbol>
  </defs>
</svg>
